<svg id="Ebene_1" data-name="Ebene 1" xmlns="http://www.w3.org/2000/svg" viewBox="0 0 566.93 804"><defs><style>.cls-1{fill:#eecfe5;}.cls-2,.cls-3{fill:#f29ec1;stroke:#f29ec1;stroke-miterlimit:10;}.cls-2{stroke-width:4px;}.cls-3{stroke-width:5px;}.cls-4,.cls-5,.cls-6{fill:#efefef;}.cls-4,.cls-5{opacity:0.9;}.cls-5{font-size:72.44px;font-family:Karla-Bold, Karla;font-weight:700;letter-spacing:-0.03em;}</style></defs><title>app_design</title><rect class="cls-1" width="566.93" height="804"/><path class="cls-2" d="M264.61,387.4c-73.18,0-132.72-59.54-132.72-132.72S191.43,122,264.61,122s132.72,59.54,132.72,132.72S337.79,387.4,264.61,387.4Zm0-254.8A122.09,122.09,0,1,0,386.7,254.69,122.23,122.23,0,0,0,264.61,132.6Z"/><path class="cls-3" d="M334.34,273.71h0a3.72,3.72,0,0,1,1.74,5.09c-14.13,27.1-41.86,44.4-71.69,44.4s-57.56-17.3-71.68-44.4a3.72,3.72,0,0,1,1.75-5.09h0a3.71,3.71,0,0,1,4.85,1.66c12.84,24.65,38,40.39,65.08,40.39s52.24-15.74,65.09-40.39A3.71,3.71,0,0,1,334.34,273.71Z"/><rect class="cls-4" x="110.03" y="425.73" width="287.3" height="19.22"/><text class="cls-5" transform="translate(469.82 444.96) rotate(-90)">Software</text><path class="cls-6" d="M110,323h15.67v84.71H110Z"/><path class="cls-6" d="M135.4,328.28a8,8,0,0,1,2.52-6.24q2.52-2.28,7.17-2.28a10.37,10.37,0,0,1,7.1,2.28,8.8,8.8,0,0,1,0,12.47,10.36,10.36,0,0,1-7.1,2.28q-4.65,0-7.17-2.28A8,8,0,0,1,135.4,328.28Zm1.86,19.26h15.67v60.14H137.26Z"/><path class="cls-6" d="M202.66,406.19q-8.76,3.21-13.81,3.21a31.44,31.44,0,0,1-8.83-1.11,20.46,20.46,0,0,1-6.71-3.33q-6.11-5.06-6.11-14V357.42h-9v-9.76h9V331.86h15.67v15.81H200.4v9.76H182.87v33.09q0,7.41,7.57,7.41a34,34,0,0,0,10-2Z"/><path class="cls-6" d="M241.06,394.71h35.45v12.72H225.39V327.29h15.67Z"/><path class="cls-6" d="M280.43,328a8,8,0,0,1,2.52-6.24q2.52-2.28,7.17-2.28a10.37,10.37,0,0,1,7.1,2.28,8.8,8.8,0,0,1,0,12.47,10.36,10.36,0,0,1-7.1,2.28q-4.65,0-7.17-2.28A8,8,0,0,1,280.43,328Zm1.86,19.26H298v60.14H282.29Z"/><path class="cls-6" d="M303.58,347.42h9.56v-7q0-9.26,5.84-14.2,5.31-4.45,13.81-4.45a75.49,75.49,0,0,1,13.41,1.48l-3.05,11.24a21.55,21.55,0,0,0-6.71-1.24,9.07,9.07,0,0,0-5.24,1.54q-2.26,1.55-2.26,5.74v6.92h11.82v9.76H328.94v50.26h-15.8V357.17h-9.56Z"/><path class="cls-6" d="M395.67,363.71a31.45,31.45,0,0,1,1.66,9.51,51.62,51.62,0,0,1-.53,7.78H355.11q.27,7.29,3.85,11.85t10.89,4.57q9.69,0,11.55-7.9h15.8a21.29,21.29,0,0,1-8.9,14.2q-7.57,5.43-18.46,5.43a29,29,0,0,1-21.38-8.64q-8.9-9-8.9-23.09,0-14.45,8.9-23.21,8.49-8.4,21.38-8.4,13.41,0,20.85,8.77A26.75,26.75,0,0,1,395.67,363.71ZM370,357.42q-6.64,0-10.36,4a17.37,17.37,0,0,0-4.38,10.31h27.48q0-9.75-6.64-13.09A13.8,13.8,0,0,0,370,357.42Z"/><path class="cls-3" d="M238.45,204.43h0a1.61,1.61,0,0,1,.53,1.95c-4.27,10.36-12.65,17-21.67,17s-17.4-6.62-21.67-17a1.61,1.61,0,0,1,.53-1.95h0a1,1,0,0,1,1.47.63c3.88,9.43,11.49,15.45,19.67,15.45s15.79-6,19.68-15.45A1,1,0,0,1,238.45,204.43Z"/><path class="cls-3" d="M333.06,204.43h0a1.61,1.61,0,0,1,.53,1.95c-4.27,10.36-12.65,17-21.67,17s-17.4-6.62-21.67-17a1.61,1.61,0,0,1,.53-1.95h0a1,1,0,0,1,1.47.63c3.88,9.43,11.49,15.45,19.67,15.45s15.79-6,19.68-15.45A1,1,0,0,1,333.06,204.43Z"/></svg>