<svg xmlns="http://www.w3.org/2000/svg" xmlns:xlink="http://www.w3.org/1999/xlink" viewBox="0 0 1080 1920"><defs><style>.cls-1,.cls-19{fill:#fff;}.cls-2{isolation:isolate;}.cls-3{fill:url(#Unbenannter_Verlauf_18);}.cls-4{fill:#c5c5c5;}.cls-5{fill:#dcdcdc;}.cls-6{fill:#898989;}.cls-19,.cls-7{opacity:0.5;}.cls-7{fill:url(#Unbenannter_Verlauf_7);}.cls-16,.cls-17,.cls-8{fill:none;stroke-miterlimit:10;}.cls-8{stroke:#fff;opacity:0.35;}.cls-16,.cls-8{stroke-width:4px;}.cls-15,.cls-8{mix-blend-mode:overlay;}.cls-9{fill:url(#Unbenannter_Verlauf_16);}.cls-10{fill:url(#Unbenannter_Verlauf_16-2);}.cls-11{fill:url(#Unbenannter_Verlauf_16-3);}.cls-12{fill:url(#Unbenannter_Verlauf_18-2);}.cls-13{fill:url(#Unbenannter_Verlauf_18-3);}.cls-14{fill:url(#Unbenannter_Verlauf_18-4);}.cls-16{stroke:#ffd4d4;}.cls-17{font-size:220px;stroke:#fcc5c5;stroke-width:8px;}.cls-17,.cls-18{font-family:Poppins-Medium, Poppins Medium;}.cls-18{font-size:98.64px;fill:#fcc5c5;}.cls-19{font-size:82.14px;font-family:Rubik-Medium, Rubik;}.cls-20{letter-spacing:-0.03em;}.cls-21{letter-spacing:-0.02em;}.cls-22{letter-spacing:-0.02em;}.cls-23{letter-spacing:-0.02em;}.cls-24{letter-spacing:-0.01em;}.cls-25{letter-spacing:-0.03em;}.cls-26{fill:#f19dc0;}.cls-27,.cls-28,.cls-30{fill:#eeeeef;}.cls-27,.cls-28,.cls-29{opacity:0.9;}.cls-28{font-size:34.98px;font-family:Karla-Bold, Karla;font-weight:700;letter-spacing:-0.03em;}</style><linearGradient id="Unbenannter_Verlauf_18" x1="544.43" y1="135.64" x2="534.17" y2="2087.46" gradientUnits="userSpaceOnUse"><stop offset="0" stop-color="#121026"/><stop offset="0.23" stop-color="#231f42"/><stop offset="0.55" stop-color="#372f62"/><stop offset="0.82" stop-color="#433975"/><stop offset="1" stop-color="#473d7c"/></linearGradient><linearGradient id="Unbenannter_Verlauf_7" x1="549.28" y1="782.7" x2="537.31" y2="427.42" gradientUnits="userSpaceOnUse"><stop offset="0" stop-color="#ff008c"/><stop offset="0.68" stop-color="#701c65" stop-opacity="0.31"/><stop offset="1" stop-color="#312854" stop-opacity="0"/></linearGradient><linearGradient id="Unbenannter_Verlauf_16" x1="121.42" y1="610.32" x2="123.34" y2="434.96" gradientUnits="userSpaceOnUse"><stop offset="0" stop-color="#f08631"/><stop offset="0.04" stop-color="#ea7e3e" stop-opacity="0.94"/><stop offset="0.27" stop-color="#c95282" stop-opacity="0.61"/><stop offset="0.47" stop-color="#ae2fb7" stop-opacity="0.35"/><stop offset="0.64" stop-color="#9b15de" stop-opacity="0.16"/><stop offset="0.77" stop-color="#8f06f6" stop-opacity="0.04"/><stop offset="0.84" stop-color="#8b00ff" stop-opacity="0"/></linearGradient><linearGradient id="Unbenannter_Verlauf_16-2" x1="231.11" y1="168.75" x2="231.81" y2="104.99" xlink:href="#Unbenannter_Verlauf_16"/><linearGradient id="Unbenannter_Verlauf_16-3" x1="903.06" y1="185.22" x2="903.85" y2="113.48" xlink:href="#Unbenannter_Verlauf_16"/><linearGradient id="Unbenannter_Verlauf_18-2" x1="527.98" y1="1979.13" x2="548.88" y2="1615.22" xlink:href="#Unbenannter_Verlauf_18"/><linearGradient id="Unbenannter_Verlauf_18-3" x1="538.4" y1="2081.33" x2="541.79" y2="1487.72" xlink:href="#Unbenannter_Verlauf_18"/><linearGradient id="Unbenannter_Verlauf_18-4" x1="541.82" y1="1739.42" x2="537.15" y2="1947.79" xlink:href="#Unbenannter_Verlauf_18"/><symbol id="_10px_star" data-name="10px star" viewBox="0 0 10 10"><circle class="cls-1" cx="5" cy="5" r="5"/></symbol><symbol id="_5px_star" data-name="5px star" viewBox="0 0 5 5"><use width="10" height="10" transform="scale(0.5)" xlink:href="#_10px_star"/></symbol><symbol id="_15px_star" data-name="15px star" viewBox="0 0 15 15"><circle class="cls-1" cx="7.5" cy="7.5" r="7.5"/></symbol></defs><title>Goals_Artwork_Release_Poster</title><g class="cls-2"><g id="Ebene_1" data-name="Ebene 1"><rect class="cls-3" x="0.19" y="-0.07" width="1079.81" height="1920.07"/><g class="cls-2"><polygon class="cls-4" points="540.61 536.53 664.36 464.62 663.95 607.75 540.21 679.66 540.61 536.53"/><polygon class="cls-5" points="416.06 464.62 539.8 392.7 664.36 464.62 540.61 536.53 416.06 464.62"/><polygon class="cls-6" points="540.61 536.53 540.21 679.66 415.65 607.75 416.06 464.62 540.61 536.53"/></g><circle class="cls-7" cx="541" cy="537" r="247"/><polygon class="cls-8" points="231.38 358 231.38 714.36 540 892.55 848.62 714.36 848.62 358 540 179.82 231.38 358"/><ellipse class="cls-9" cx="122.5" cy="512" rx="87.68" ry="88"/><ellipse class="cls-10" cx="231.5" cy="133" rx="31.88" ry="32"/><ellipse class="cls-11" cx="903.5" cy="145" rx="35.87" ry="36"/><path class="cls-12" d="M1080,1496.56V1920H1.19V1598.89C32.4,1571,58.54,1534.84,112,1530c60.44-5.47,63.43,37.43,162,60,22,5,120.3,25.44,225-12a294,294,0,0,0,41-18.08c.34-.17.67-.35,1-.53,34.58-18.74,49.13-35.77,90-41.39,58.67-8.07,67.13,30.22,162,48,43,8.06,94.8,17.76,150-3,46.85-17.62,50-39.84,93-57C1036,1506,1052.49,1499.42,1080,1496.56Z"/><path class="cls-13" d="M1080,1640.91V1920H.19V1649.34l1-.1C22.46,1647,62.71,1643.07,145,1633c123.91-15.16,149-20.4,190-8,64.1,19.36,57.45,48.58,124,68,6.13,1.79,38.38,10.74,81,9.67,30.31-.76,65.86-6.6,101-23.67,62.61-30.42,49.34-60.3,94-74,91.16-28,160.93,92.08,264,62,22.42-6.54,32.89-16.24,70-24C1072.53,1642.26,1076.21,1641.56,1080,1640.91Z"/><path class="cls-14" d="M1080,1713.54V1920H.19V1712.63l1,.08c105.44,8.18,127,85.16,253.81,95.29,130.8,10.45,150.06-68.08,285-64.26q3.45.09,7,.26c137.89,6.63,159.37,86,276,72,98.53-11.81,104.27-71,212-96C1037.52,1719.42,1054.34,1715.74,1080,1713.54Z"/><g class="cls-15"><polyline class="cls-16" points="540 538.18 540.61 537.83 664.36 466.02 754.92 413.46 848.62 359.09"/><polyline class="cls-16" points="540.08 538.23 540 538.18 416.05 466.25 326.58 414.33 231.38 359.09"/><line class="cls-16" x1="540" y1="538.18" x2="540" y2="1744"/></g><text class="cls-17" transform="translate(183.3 366.37)">GOALS</text><use width="5" height="5" transform="translate(172.67 1124)" xlink:href="#_5px_star"/><use width="5" height="5" transform="translate(778.79 1055.01)" xlink:href="#_5px_star"/><use width="5" height="5" transform="translate(221.18 910.42)" xlink:href="#_5px_star"/><use width="5" height="5" transform="translate(932.31 868.05)" xlink:href="#_5px_star"/><use width="5" height="5" transform="translate(114.11 744.45)" xlink:href="#_5px_star"/><use width="5" height="5" transform="translate(52.52 177.89)" xlink:href="#_5px_star"/><use width="5" height="5" transform="translate(715.28 79.24)" xlink:href="#_5px_star"/><use width="5" height="5" transform="translate(979.95 344.21)" xlink:href="#_5px_star"/><use width="5" height="5" transform="translate(1012.74 79.56)" xlink:href="#_5px_star"/><use width="5" height="5" transform="translate(465.24 146.42)" xlink:href="#_5px_star"/><use width="5" height="5" transform="translate(179.66 58.24)" xlink:href="#_5px_star"/><use width="5" height="5" transform="translate(344.65 1289.71)" xlink:href="#_5px_star"/><use width="5" height="5" transform="translate(895.35 1358.04)" xlink:href="#_5px_star"/><use width="5" height="5" transform="translate(670.29 1151.84)" xlink:href="#_5px_star"/><use width="5" height="5" transform="translate(338.01 1078.51)" xlink:href="#_5px_star"/><use width="5" height="5" transform="translate(724.22 864.36)" xlink:href="#_5px_star"/><use width="5" height="5" transform="translate(928.69 548.48)" xlink:href="#_5px_star"/><use width="5" height="5" transform="translate(94.54 372.09)" xlink:href="#_5px_star"/><use width="10" height="10" transform="translate(366.13 1140.06)" xlink:href="#_10px_star"/><use width="10" height="10" transform="translate(486.28 1015.99)" xlink:href="#_10px_star"/><use width="10" height="10" transform="translate(881.55 962.06)" xlink:href="#_10px_star"/><use width="10" height="10" transform="translate(384.16 922.17)" xlink:href="#_10px_star"/><use width="10" height="10" transform="translate(88.66 883.95)" xlink:href="#_10px_star"/><use width="10" height="10" transform="translate(167.47 650.58)" xlink:href="#_10px_star"/><use width="10" height="10" transform="translate(282.97 702.39)" xlink:href="#_10px_star"/><use width="10" height="10" transform="translate(787.05 696.42)" xlink:href="#_10px_star"/><use width="10" height="10" transform="translate(162.4 387.45)" xlink:href="#_10px_star"/><use width="10" height="10" transform="translate(904.65 709.19)" xlink:href="#_10px_star"/><use width="10" height="10" transform="translate(907.85 437.81)" xlink:href="#_10px_star"/><use width="10" height="10" transform="translate(438.53 67.83)" xlink:href="#_10px_star"/><use width="10" height="10" transform="translate(959.02 179.55)" xlink:href="#_10px_star"/><use width="10" height="10" transform="translate(135.67 224.2)" xlink:href="#_10px_star"/><use width="15" height="15" transform="translate(616.9 940.41)" xlink:href="#_15px_star"/><use width="15" height="15" transform="translate(595.84 1047.25)" xlink:href="#_15px_star"/><use width="15" height="15" transform="translate(165.18 742.71)" xlink:href="#_15px_star"/><use width="15" height="15" transform="translate(50.33 255.43)" xlink:href="#_15px_star"/><use width="15" height="15" transform="translate(640.69 150.11)" xlink:href="#_15px_star"/><use width="15" height="15" transform="translate(963.82 675.97)" xlink:href="#_15px_star"/><use width="10" height="10" transform="translate(143.99 1256.18)" xlink:href="#_10px_star"/><use width="10" height="10" transform="translate(75.9 991.81)" xlink:href="#_10px_star"/><use width="10" height="10" transform="translate(992.11 1160)" xlink:href="#_10px_star"/><text class="cls-18" transform="translate(195.36 1043.17)">Set long-term<tspan x="-42.36" y="118.37">goals and track</tspan><tspan x="0.74" y="236.73">your progress</tspan></text><text class="cls-19" transform="translate(268.75 1537.35)"><tspan class="cls-20">A</tspan><tspan class="cls-21" x="54.13" y="0">v</tspan><tspan x="99.56" y="0">ailable n</tspan><tspan class="cls-22" x="426.98" y="0">o</tspan><tspan class="cls-23" x="474.46" y="0">w</tspan><tspan x="-19.67" y="98.57">on Google Pl</tspan><tspan class="cls-24" x="468.83" y="98.57">a</tspan><tspan class="cls-25" x="514.66" y="98.57">y</tspan></text><path class="cls-26" d="M895.55,1682a65.05,65.05,0,1,0,65.05,65.05A65.13,65.13,0,0,0,895.55,1682Zm58,65.05a58,58,0,1,1-58-58A58.05,58.05,0,0,1,953.54,1747.05Z"/><path class="cls-26" d="M931.31,1756.9a3,3,0,0,0-5.51-.43,33.87,33.87,0,0,1-60.72,0,3,3,0,0,0-3.92-1.34,3,3,0,0,0-1.58,1.76,3,3,0,0,0,.18,2.35,39.87,39.87,0,0,0,71.37,0A3,3,0,0,0,931.31,1756.9Z"/><rect class="cls-27" x="811.85" y="1829.65" width="149.51" height="9.28"/><text class="cls-28" transform="translate(994.64 1838.93) rotate(-90)">Software</text><g class="cls-29"><path class="cls-30" d="M811.85,1779.9h7.57v40.9h-7.57Z"/><path class="cls-30" d="M826.28,1782.47a3.86,3.86,0,0,1,1.22-3,5.94,5.94,0,0,1,6.89,0,4.25,4.25,0,0,1,0,6,5.94,5.94,0,0,1-6.89,0A3.86,3.86,0,0,1,826.28,1782.47Zm.9,9.3h7.57v29h-7.57Z"/><path class="cls-30" d="M860.32,1820.09a20.89,20.89,0,0,1-6.67,1.55,15.18,15.18,0,0,1-4.26-.54,9.88,9.88,0,0,1-3.24-1.61,8.28,8.28,0,0,1-2.95-6.74v-16.22h-4.36v-4.71h4.36v-7.63h7.57v7.63h8.46v4.71h-8.46v16q0,3.58,3.65,3.58a16.42,16.42,0,0,0,4.81-1Z"/><path class="cls-30" d="M882.25,1814.67h17.12v6.14H874.68v-38.7h7.57Z"/><path class="cls-30" d="M901.29,1782.47a3.86,3.86,0,0,1,1.22-3,5.94,5.94,0,0,1,6.89,0,4.25,4.25,0,0,1,0,6,5.94,5.94,0,0,1-6.89,0A3.86,3.86,0,0,1,901.29,1782.47Zm.9,9.3h7.57v29h-7.57Z"/><path class="cls-30" d="M914.37,1791.83H919v-3.4a8.48,8.48,0,0,1,2.82-6.86,10,10,0,0,1,6.67-2.15,36.45,36.45,0,0,1,6.48.72l-1.47,5.43a10.41,10.41,0,0,0-3.24-.6,4.38,4.38,0,0,0-2.53.75,3.13,3.13,0,0,0-1.09,2.77v3.34h5.71v4.71h-5.71v24.27H919v-24.27h-4.62Z"/><path class="cls-30" d="M960.56,1799.7a15.19,15.19,0,0,1,.8,4.59,24.93,24.93,0,0,1-.26,3.76H941a9.59,9.59,0,0,0,1.86,5.72,6.27,6.27,0,0,0,5.26,2.21q4.68,0,5.58-3.82h7.63A10.28,10.28,0,0,1,957,1819a14.88,14.88,0,0,1-8.91,2.62,14,14,0,0,1-10.32-4.17,15.2,15.2,0,0,1-4.3-11.15q0-7,4.3-11.21a14.08,14.08,0,0,1,10.32-4.05q6.48,0,10.07,4.23A12.92,12.92,0,0,1,960.56,1799.7Zm-12.41-3a6.48,6.48,0,0,0-5,1.94,8.39,8.39,0,0,0-2.12,5h13.27q0-4.71-3.21-6.32A6.66,6.66,0,0,0,948.16,1796.66Z"/></g><path class="cls-26" d="M883.53,1721.74h0a1.65,1.65,0,0,0-1.36-.14,1.8,1.8,0,0,0-1.07,1c-1.68,4.08-5,6.71-8.38,6.71s-6.7-2.63-8.38-6.71a1.79,1.79,0,0,0-1.07-1,1.65,1.65,0,0,0-1.36.14,2,2,0,0,0-.76,2.44c2.27,5.52,6.71,8.95,11.58,8.95s9.31-3.43,11.58-8.95A2,2,0,0,0,883.53,1721.74Z"/><path class="cls-26" d="M929.22,1721.74h0a1.65,1.65,0,0,0-1.36-.14,1.79,1.79,0,0,0-1.07,1c-1.68,4.08-5,6.71-8.38,6.71s-6.7-2.63-8.38-6.71a1.79,1.79,0,0,0-1.07-1,1.65,1.65,0,0,0-1.36.14,2,2,0,0,0-.76,2.44c2.27,5.52,6.71,8.95,11.58,8.95s9.31-3.43,11.58-8.95A2,2,0,0,0,929.22,1721.74Z"/></g></g></svg>