<svg xmlns="http://www.w3.org/2000/svg" xmlns:xlink="http://www.w3.org/1999/xlink" viewBox="0 0 1079.81 1920.07"><defs><style>.cls-1,.cls-20{fill:#fff;}.cls-2{isolation:isolate;}.cls-3{fill:url(#Unbenannter_Verlauf_18);}.cls-4{fill:#c5c5c5;}.cls-5{fill:#dcdcdc;}.cls-6{fill:#898989;}.cls-20,.cls-7{opacity:0.5;}.cls-7{fill:url(#Unbenannter_Verlauf_7);}.cls-17,.cls-18,.cls-8,.cls-9{fill:none;stroke-miterlimit:10;}.cls-8,.cls-9{stroke:#fff;}.cls-17,.cls-8,.cls-9{stroke-width:4px;}.cls-8{opacity:0.35;}.cls-16,.cls-8{mix-blend-mode:overlay;}.cls-10{fill:url(#Unbenannter_Verlauf_16);}.cls-11{fill:url(#Unbenannter_Verlauf_16-2);}.cls-12{fill:url(#Unbenannter_Verlauf_16-3);}.cls-13{fill:url(#Unbenannter_Verlauf_18-2);}.cls-14{fill:url(#Unbenannter_Verlauf_18-3);}.cls-15{fill:url(#Unbenannter_Verlauf_18-4);}.cls-17{stroke:#ffd4d4;}.cls-18{font-size:220px;stroke:#fcc5c5;stroke-width:8px;}.cls-18,.cls-19{font-family:Poppins-Medium, Poppins Medium;}.cls-19{font-size:98.64px;fill:#fcc5c5;}.cls-20{font-size:82.14px;font-family:Rubik-Medium, Rubik;}.cls-21{letter-spacing:-0.03em;}.cls-22{letter-spacing:-0.02em;}.cls-23{letter-spacing:-0.02em;}.cls-24{letter-spacing:-0.02em;}.cls-25{letter-spacing:-0.01em;}.cls-26{letter-spacing:-0.03em;}.cls-27{fill:#f19dc0;}.cls-28,.cls-29,.cls-31{fill:#eeeeef;}.cls-28,.cls-29,.cls-30{opacity:0.9;}.cls-29{font-size:34.98px;font-family:Karla-Bold, Karla;font-weight:700;letter-spacing:-0.03em;}</style><linearGradient id="Unbenannter_Verlauf_18" x1="544.24" y1="135.71" x2="533.98" y2="2087.53" gradientUnits="userSpaceOnUse"><stop offset="0" stop-color="#121026"/><stop offset="0.23" stop-color="#231f42"/><stop offset="0.55" stop-color="#372f62"/><stop offset="0.82" stop-color="#433975"/><stop offset="1" stop-color="#473d7c"/></linearGradient><linearGradient id="Unbenannter_Verlauf_7" x1="549.09" y1="782.77" x2="537.12" y2="427.49" gradientUnits="userSpaceOnUse"><stop offset="0" stop-color="#ff008c"/><stop offset="0.68" stop-color="#701c65" stop-opacity="0.31"/><stop offset="1" stop-color="#312854" stop-opacity="0"/></linearGradient><linearGradient id="Unbenannter_Verlauf_16" x1="121.23" y1="610.39" x2="123.15" y2="435.03" gradientUnits="userSpaceOnUse"><stop offset="0" stop-color="#f08631"/><stop offset="0.04" stop-color="#ea7e3e" stop-opacity="0.94"/><stop offset="0.27" stop-color="#c95282" stop-opacity="0.61"/><stop offset="0.47" stop-color="#ae2fb7" stop-opacity="0.35"/><stop offset="0.64" stop-color="#9b15de" stop-opacity="0.16"/><stop offset="0.77" stop-color="#8f06f6" stop-opacity="0.04"/><stop offset="0.84" stop-color="#8b00ff" stop-opacity="0"/></linearGradient><linearGradient id="Unbenannter_Verlauf_16-2" x1="230.92" y1="168.82" x2="231.62" y2="105.06" xlink:href="#Unbenannter_Verlauf_16"/><linearGradient id="Unbenannter_Verlauf_16-3" x1="902.87" y1="185.29" x2="903.66" y2="113.55" xlink:href="#Unbenannter_Verlauf_16"/><linearGradient id="Unbenannter_Verlauf_18-2" x1="527.98" y1="1979.13" x2="548.88" y2="1615.22" xlink:href="#Unbenannter_Verlauf_18"/><linearGradient id="Unbenannter_Verlauf_18-3" x1="538.4" y1="2081.33" x2="541.79" y2="1487.72" xlink:href="#Unbenannter_Verlauf_18"/><linearGradient id="Unbenannter_Verlauf_18-4" x1="541.82" y1="1739.42" x2="537.15" y2="1947.79" xlink:href="#Unbenannter_Verlauf_18"/><symbol id="_10px_star" data-name="10px star" viewBox="0 0 10 10"><circle class="cls-1" cx="5" cy="5" r="5"/></symbol><symbol id="_5px_star" data-name="5px star" viewBox="0 0 5 5"><use width="10" height="10" transform="scale(0.5)" xlink:href="#_10px_star"/></symbol><symbol id="_15px_star" data-name="15px star" viewBox="0 0 15 15"><circle class="cls-1" cx="7.5" cy="7.5" r="7.5"/></symbol></defs><title>Goals_Artwork_Release_Poster</title><g class="cls-2"><g id="Ebene_1" data-name="Ebene 1"><rect class="cls-3" width="1079.81" height="1920.07"/><g class="cls-2"><polygon class="cls-4" points="540.42 536.6 664.17 464.69 663.76 607.82 540.02 679.73 540.42 536.6"/><polygon class="cls-5" points="415.87 464.69 539.61 392.77 664.17 464.69 540.42 536.6 415.87 464.69"/><polygon class="cls-6" points="540.42 536.6 540.02 679.73 415.46 607.82 415.87 464.69 540.42 536.6"/></g><circle class="cls-7" cx="540.81" cy="537.07" r="247"/><polygon class="cls-8" points="231.19 358.07 231.19 714.43 539.81 892.62 848.43 714.43 848.43 358.07 539.81 179.89 231.19 358.07"/><path class="cls-9" d="M541,560" transform="translate(-0.19 0.07)"/><ellipse class="cls-10" cx="122.31" cy="512.07" rx="87.68" ry="88"/><ellipse class="cls-11" cx="231.31" cy="133.07" rx="31.88" ry="32"/><ellipse class="cls-12" cx="903.31" cy="145.07" rx="35.87" ry="36"/><path class="cls-13" d="M1080,1496.56V1920H1.19V1598.89C32.4,1571,58.54,1534.84,112,1530c60.44-5.47,63.43,37.43,162,60,22,5,120.3,25.44,225-12a294,294,0,0,0,41-18.08c.34-.17.67-.35,1-.53,34.58-18.74,49.13-35.77,90-41.39,58.67-8.07,67.13,30.22,162,48,43,8.06,94.8,17.76,150-3,46.85-17.62,50-39.84,93-57C1036,1506,1052.49,1499.42,1080,1496.56Z" transform="translate(-0.19 0.07)"/><path class="cls-14" d="M1080,1640.91V1920H.19V1649.34l1-.1C22.46,1647,62.71,1643.07,145,1633c123.91-15.16,149-20.4,190-8,64.1,19.36,57.45,48.58,124,68,6.13,1.79,38.38,10.74,81,9.67,30.31-.76,65.86-6.6,101-23.67,62.61-30.42,49.34-60.3,94-74,91.16-28,160.93,92.08,264,62,22.42-6.54,32.89-16.24,70-24C1072.53,1642.26,1076.21,1641.56,1080,1640.91Z" transform="translate(-0.19 0.07)"/><path class="cls-15" d="M1080,1713.54V1920H.19V1712.63l1,.08c105.44,8.18,127,85.16,253.81,95.29,130.8,10.45,150.06-68.08,285-64.26q3.45.09,7,.26c137.89,6.63,159.37,86,276,72,98.53-11.81,104.27-71,212-96C1037.52,1719.42,1054.34,1715.74,1080,1713.54Z" transform="translate(-0.19 0.07)"/><g class="cls-16"><polyline class="cls-17" points="539.81 538.25 540.42 537.9 664.17 466.09 754.73 413.53 848.43 359.16"/><polyline class="cls-17" points="539.89 538.3 539.81 538.25 415.86 466.32 326.39 414.4 231.19 359.16"/><line class="cls-17" x1="539.81" y1="538.25" x2="539.81" y2="1744.07"/></g><text class="cls-18" transform="translate(183.11 366.44)">GOALS</text><use width="5" height="5" transform="translate(172.48 1124.07)" xlink:href="#_5px_star"/><use width="5" height="5" transform="translate(778.6 1055.08)" xlink:href="#_5px_star"/><use width="5" height="5" transform="translate(220.99 910.49)" xlink:href="#_5px_star"/><use width="5" height="5" transform="translate(932.12 868.12)" xlink:href="#_5px_star"/><use width="5" height="5" transform="translate(113.92 744.52)" xlink:href="#_5px_star"/><use width="5" height="5" transform="translate(52.33 177.96)" xlink:href="#_5px_star"/><use width="5" height="5" transform="translate(715.09 79.31)" xlink:href="#_5px_star"/><use width="5" height="5" transform="translate(979.76 344.28)" xlink:href="#_5px_star"/><use width="5" height="5" transform="translate(1012.55 79.63)" xlink:href="#_5px_star"/><use width="5" height="5" transform="translate(465.05 146.49)" xlink:href="#_5px_star"/><use width="5" height="5" transform="translate(179.47 58.31)" xlink:href="#_5px_star"/><use width="5" height="5" transform="translate(344.46 1289.78)" xlink:href="#_5px_star"/><use width="5" height="5" transform="translate(895.16 1358.11)" xlink:href="#_5px_star"/><use width="5" height="5" transform="translate(670.1 1151.91)" xlink:href="#_5px_star"/><use width="5" height="5" transform="translate(337.82 1078.58)" xlink:href="#_5px_star"/><use width="5" height="5" transform="translate(724.03 864.43)" xlink:href="#_5px_star"/><use width="5" height="5" transform="translate(928.5 548.55)" xlink:href="#_5px_star"/><use width="5" height="5" transform="translate(94.35 372.16)" xlink:href="#_5px_star"/><use width="10" height="10" transform="translate(365.94 1140.13)" xlink:href="#_10px_star"/><use width="10" height="10" transform="translate(486.09 1016.06)" xlink:href="#_10px_star"/><use width="10" height="10" transform="translate(881.36 962.13)" xlink:href="#_10px_star"/><use width="10" height="10" transform="translate(383.97 922.24)" xlink:href="#_10px_star"/><use width="10" height="10" transform="translate(88.47 884.02)" xlink:href="#_10px_star"/><use width="10" height="10" transform="translate(167.28 650.65)" xlink:href="#_10px_star"/><use width="10" height="10" transform="translate(282.78 702.46)" xlink:href="#_10px_star"/><use width="10" height="10" transform="translate(786.86 696.49)" xlink:href="#_10px_star"/><use width="10" height="10" transform="translate(162.21 387.52)" xlink:href="#_10px_star"/><use width="10" height="10" transform="translate(904.46 709.26)" xlink:href="#_10px_star"/><use width="10" height="10" transform="translate(907.66 437.88)" xlink:href="#_10px_star"/><use width="10" height="10" transform="translate(438.34 67.9)" xlink:href="#_10px_star"/><use width="10" height="10" transform="translate(958.83 179.62)" xlink:href="#_10px_star"/><use width="10" height="10" transform="translate(135.48 224.27)" xlink:href="#_10px_star"/><use width="15" height="15" transform="translate(616.71 940.48)" xlink:href="#_15px_star"/><use width="15" height="15" transform="translate(595.65 1047.32)" xlink:href="#_15px_star"/><use width="15" height="15" transform="translate(164.99 742.78)" xlink:href="#_15px_star"/><use width="15" height="15" transform="translate(50.14 255.5)" xlink:href="#_15px_star"/><use width="15" height="15" transform="translate(640.5 150.18)" xlink:href="#_15px_star"/><use width="15" height="15" transform="translate(963.63 676.04)" xlink:href="#_15px_star"/><use width="10" height="10" transform="translate(143.8 1256.25)" xlink:href="#_10px_star"/><use width="10" height="10" transform="translate(75.71 991.88)" xlink:href="#_10px_star"/><use width="10" height="10" transform="translate(991.92 1160.07)" xlink:href="#_10px_star"/><text class="cls-19" transform="translate(195.17 1043.24)">Set long-term<tspan x="-42.36" y="118.37">goals and track</tspan><tspan x="0.74" y="236.73">your progress</tspan></text><text class="cls-20" transform="translate(268.56 1537.42)"><tspan class="cls-21">A</tspan><tspan class="cls-22" x="54.13" y="0">v</tspan><tspan x="99.56" y="0">ailable n</tspan><tspan class="cls-23" x="426.98" y="0">o</tspan><tspan class="cls-24" x="474.46" y="0">w</tspan><tspan x="-19.67" y="98.57">on Google Pl</tspan><tspan class="cls-25" x="468.83" y="98.57">a</tspan><tspan class="cls-26" x="514.66" y="98.57">y</tspan></text><path class="cls-27" d="M895.55,1682a65.05,65.05,0,1,0,65.05,65.05A65.13,65.13,0,0,0,895.55,1682Zm58,65.05a58,58,0,1,1-58-58A58.05,58.05,0,0,1,953.54,1747.05Z" transform="translate(-0.19 0.07)"/><path class="cls-27" d="M931.31,1756.9a3,3,0,0,0-5.51-.43,33.87,33.87,0,0,1-60.72,0,3,3,0,0,0-3.92-1.34,3,3,0,0,0-1.58,1.76,3,3,0,0,0,.18,2.35,39.87,39.87,0,0,0,71.37,0A3,3,0,0,0,931.31,1756.9Z" transform="translate(-0.19 0.07)"/><rect class="cls-28" x="811.66" y="1829.72" width="149.51" height="9.28"/><text class="cls-29" transform="translate(994.45 1839) rotate(-90)">Software</text><g class="cls-30"><path class="cls-31" d="M811.85,1779.9h7.57v40.9h-7.57Z" transform="translate(-0.19 0.07)"/><path class="cls-31" d="M826.28,1782.47a3.86,3.86,0,0,1,1.22-3,5.94,5.94,0,0,1,6.89,0,4.25,4.25,0,0,1,0,6,5.94,5.94,0,0,1-6.89,0A3.86,3.86,0,0,1,826.28,1782.47Zm.9,9.3h7.57v29h-7.57Z" transform="translate(-0.19 0.07)"/><path class="cls-31" d="M860.32,1820.09a20.89,20.89,0,0,1-6.67,1.55,15.18,15.18,0,0,1-4.26-.54,9.88,9.88,0,0,1-3.24-1.61,8.28,8.28,0,0,1-2.95-6.74v-16.22h-4.36v-4.71h4.36v-7.63h7.57v7.63h8.46v4.71h-8.46v16q0,3.58,3.65,3.58a16.42,16.42,0,0,0,4.81-1Z" transform="translate(-0.19 0.07)"/><path class="cls-31" d="M882.25,1814.67h17.12v6.14H874.68v-38.7h7.57Z" transform="translate(-0.19 0.07)"/><path class="cls-31" d="M901.29,1782.47a3.86,3.86,0,0,1,1.22-3,5.94,5.94,0,0,1,6.89,0,4.25,4.25,0,0,1,0,6,5.94,5.94,0,0,1-6.89,0A3.86,3.86,0,0,1,901.29,1782.47Zm.9,9.3h7.57v29h-7.57Z" transform="translate(-0.19 0.07)"/><path class="cls-31" d="M914.37,1791.83H919v-3.4a8.48,8.48,0,0,1,2.82-6.86,10,10,0,0,1,6.67-2.15,36.45,36.45,0,0,1,6.48.72l-1.47,5.43a10.41,10.41,0,0,0-3.24-.6,4.38,4.38,0,0,0-2.53.75,3.13,3.13,0,0,0-1.09,2.77v3.34h5.71v4.71h-5.71v24.27H919v-24.27h-4.62Z" transform="translate(-0.19 0.07)"/><path class="cls-31" d="M960.56,1799.7a15.19,15.19,0,0,1,.8,4.59,24.93,24.93,0,0,1-.26,3.76H941a9.59,9.59,0,0,0,1.86,5.72,6.27,6.27,0,0,0,5.26,2.21q4.68,0,5.58-3.82h7.63A10.28,10.28,0,0,1,957,1819a14.88,14.88,0,0,1-8.91,2.62,14,14,0,0,1-10.32-4.17,15.2,15.2,0,0,1-4.3-11.15q0-7,4.3-11.21a14.08,14.08,0,0,1,10.32-4.05q6.48,0,10.07,4.23A12.92,12.92,0,0,1,960.56,1799.7Zm-12.41-3a6.48,6.48,0,0,0-5,1.94,8.39,8.39,0,0,0-2.12,5h13.27q0-4.71-3.21-6.32A6.66,6.66,0,0,0,948.16,1796.66Z" transform="translate(-0.19 0.07)"/></g><path class="cls-27" d="M883.53,1721.74h0a1.65,1.65,0,0,0-1.36-.14,1.8,1.8,0,0,0-1.07,1c-1.68,4.08-5,6.71-8.38,6.71s-6.7-2.63-8.38-6.71a1.79,1.79,0,0,0-1.07-1,1.65,1.65,0,0,0-1.36.14,2,2,0,0,0-.76,2.44c2.27,5.52,6.71,8.95,11.58,8.95s9.31-3.43,11.58-8.95A2,2,0,0,0,883.53,1721.74Z" transform="translate(-0.19 0.07)"/><path class="cls-27" d="M929.22,1721.74h0a1.65,1.65,0,0,0-1.36-.14,1.79,1.79,0,0,0-1.07,1c-1.68,4.08-5,6.71-8.38,6.71s-6.7-2.63-8.38-6.71a1.79,1.79,0,0,0-1.07-1,1.65,1.65,0,0,0-1.36.14,2,2,0,0,0-.76,2.44c2.27,5.52,6.71,8.95,11.58,8.95s9.31-3.43,11.58-8.95A2,2,0,0,0,929.22,1721.74Z" transform="translate(-0.19 0.07)"/></g></g></svg>