<?xml version="1.0" encoding="utf-8"?>
<!-- Generator: Adobe Illustrator 21.0.0, SVG Export Plug-In . SVG Version: 6.00 Build 0)  -->
<svg version="1.1" id="Ebene_1" xmlns="http://www.w3.org/2000/svg" xmlns:xlink="http://www.w3.org/1999/xlink" x="0px" y="0px"
	 viewBox="0 0 566.9 566.9" style="enable-background:new 0 0 566.9 566.9;" xml:space="preserve">
<style type="text/css">
	.st0{display:none;fill:#EECFE5;}
	.st1{display:none;}
	.st2{display:inline;fill:#EFEFEF;}
	.st3{display:inline;}
	.st4{fill:#EFEFEF;}
	.st5{fill:#F29EC1;}
	.st6{display:none;fill:#6C6C6C;}
	.st7{display:none;fill:#F29EC1;}
	.st8{opacity:0.9;fill:#EFEFEF;}
	.st9{display:none;opacity:0.9;fill:#EFEFEF;}
	.st10{font-family:'Karla-Bold';}
	.st11{font-size:132.7766px;}
	.st12{letter-spacing:-9;}
	.st13{opacity:0.9;}
	.st14{display:none;fill:none;stroke:#F29EC1;stroke-width:7;stroke-miterlimit:10;}
</style>
<rect class="st0" width="566.9" height="566.9"/>
<g class="st1">
	<path class="st2" d="M144.9,330.3c-1.1-5.9-5.2-8.8-12.4-8.8c-3.5,0-6.2,0.7-8.2,2.1c-2,1.4-2.9,3.1-2.9,5.1s0.6,3.6,1.9,4.7
		c1.3,1.1,3.3,2.2,5.9,3.2l14.6,5.7c5,1.9,8.8,4.4,11.5,7.3c2.7,2.9,4,6.6,4,11c0,6.1-2.3,10.9-6.8,14.4c-4.5,3.5-11,5.3-19.4,5.3
		c-7.4,0-13.5-1.8-18.1-5.5c-5.2-4-7.9-9.6-8.2-16.9h12.1c0,5.5,2.9,9,8.6,10.4c1.7,0.5,4,0.7,6.8,0.7c2.8,0,5.4-0.7,7.8-2.1
		c2.4-1.4,3.6-3.3,3.6-5.7c0-2.4-0.7-4.2-2-5.5c-1.3-1.3-3.4-2.5-6.4-3.6l-13.3-5.3c-5.2-2-9.1-4.3-11.9-7
		c-2.8-2.7-4.1-6.4-4.1-11.2c0-5.6,2.2-10,6.5-13.2c4.4-3.4,10.4-5.1,17.9-5.1c7.5,0,13.4,1.7,17.5,5.2c4.1,3.5,6.5,8.4,7.1,14.6
		H144.9z"/>
	<path class="st2" d="M188.4,349.5c4,0,8.6,0.7,13.8,2v-5c0-3.5-0.7-6.1-2.1-7.8c-1.4-1.7-3.7-2.5-6.9-2.5c-3.2,0-5.7,0.6-7.4,1.9
		c-1.7,1.3-2.6,3.1-2.6,5.4h-13.3c0-5.7,2-9.8,6-12.4c4-2.5,9.7-3.8,16.9-3.8c10.3,0,17,3.6,20,10.8c1,2.5,1.5,5.4,1.5,8.8v31.9
		h-10.6l-0.9-6.7c-3.2,5.4-8.2,8.2-14.9,8.2c-6.5,0-11.5-1.6-15.1-4.7c-3.3-3-5-6.9-5-11.5c0-4.6,1.8-8.2,5.5-10.7
		C177,350.7,182,349.5,188.4,349.5z M202.2,359.2c-4.1-1.1-7.8-1.7-11.4-1.7c-6.6,0-9.9,2.2-9.9,6.6c0,1.9,0.8,3.5,2.3,4.8
		c1.5,1.3,3.9,2,7.3,2c3.3,0,6.1-1.1,8.3-3.4C200.9,365.4,202.1,362.5,202.2,359.2z"/>
	<path class="st2" d="M261.2,371c-3.1,6.1-7.8,9.2-14.3,9.2c-6.4,0-11.8-2.4-16.1-7.3c-4.5-5.1-6.7-11.6-6.7-19.4s2.1-14.2,6.4-19.1
		c4.2-4.8,9.4-7.1,15.7-7.1c6.3,0,11,2.5,14.2,7.5v-26.9h12.3v70.9h-10L261.2,371z M248.5,338.2c-3.4,0-6.3,1.4-8.6,4.2
		c-2.3,2.8-3.5,6.5-3.5,11.2s1.2,8.5,3.5,11.3c2.3,2.9,5.3,4.3,8.9,4.3c3,0,5.6-1.2,8-3.5c2.4-2.4,3.6-5.4,3.6-9.1v-6.5
		c-0.1-3.6-1.3-6.5-3.6-8.8C254.7,339.2,251.9,338.2,248.5,338.2z"/>
	<path class="st2" d="M357.4,312.4c0-2.2,0.7-3.9,2-5.2c1.3-1.3,3.2-1.9,5.6-1.9c2.3,0,4.2,0.6,5.5,1.9c1.3,1.3,2,3,2,5.2
		s-0.7,3.9-2,5.2c-1.3,1.3-3.2,1.9-5.5,1.9c-2.4,0-4.3-0.6-5.6-1.9C358.1,316.3,357.4,314.6,357.4,312.4z M358.9,328.5h12.2v50.3
		h-12.2V328.5z"/>
	<path class="st2" d="M382.5,328.6h7.4v-5.9c0-5.2,1.5-9.1,4.5-11.9c2.8-2.5,6.3-3.7,10.7-3.7c2.8,0,6.3,0.4,10.4,1.2l-2.4,9.4
		c-1.9-0.7-3.7-1-5.2-1c-1.5,0-2.9,0.4-4.1,1.3c-1.2,0.9-1.8,2.5-1.8,4.8v5.8h9.2v8.2h-9.2v42H390v-42h-7.4V328.6z"/>
	<path class="st2" d="M461,342.2c0.9,2.9,1.3,5.5,1.3,8c0,2.4-0.1,4.6-0.4,6.5h-32.4c0.1,4.1,1.1,7.4,3,9.9c1.9,2.5,4.7,3.8,8.5,3.8
		c5,0,8-2.2,9-6.6h12.3c-0.8,5-3.1,9-6.9,11.9c-3.9,3-8.7,4.5-14.4,4.5c-6.6,0-12.2-2.4-16.6-7.2c-4.6-5-6.9-11.5-6.9-19.3
		c0-8.1,2.3-14.5,6.9-19.4c4.4-4.7,9.9-7,16.6-7c7,0,12.4,2.4,16.2,7.3C458.8,336.8,460.1,339.3,461,342.2z M441,337
		c-3.4,0-6.1,1.1-8.1,3.4c-1.9,2.2-3.1,5.1-3.4,8.6h21.4c0-5.4-1.7-9.1-5.2-10.9C444.4,337.3,442.8,337,441,337z"/>
	<g class="st3">
		<path class="st4" d="M321,368.2h27.6v10.6h-39.8v-67H321V368.2z"/>
		<rect x="348.6" y="368.2" class="st4" width="4.8" height="10.6"/>
	</g>
</g>
<path class="st5" d="M264.6,120c-74.3,0-134.7,60.4-134.7,134.7s60.4,134.7,134.7,134.7S399.3,329,399.3,254.7S338.9,120,264.6,120z
	 M384.7,254.7c0,66.2-53.9,120.1-120.1,120.1c-66.2,0-120.1-53.9-120.1-120.1c0-66.2,53.9-120.1,120.1-120.1
	C330.8,134.6,384.7,188.5,384.7,254.7z"/>
<circle class="st6" cx="217.5" cy="204.3" r="13.9"/>
<circle class="st7" cx="312.1" cy="204.3" r="13.9"/>
<path class="st5" d="M338.7,275.1c-0.5-1.6-1.7-2.9-3.3-3.6c-3-1.4-6.6-0.2-8.1,2.8c-12.6,24.1-36.7,39-62.9,39
	c-26.2,0-50.3-15-62.9-39c-1.5-3-5.1-4.2-8.1-2.8c-1.5,0.7-2.7,2-3.3,3.6c-0.6,1.6-0.4,3.3,0.4,4.9c14.7,28.2,43,45.7,73.9,45.7
	c30.9,0,59.2-17.5,73.9-45.7C339.1,278.4,339.2,276.7,338.7,275.1z"/>
<rect x="91.3" y="425.7" class="st8" width="309.6" height="19.2"/>
<text transform="matrix(1 0 0 0.93 78.9292 407.4277)" class="st9 st10 st11 st12">lit Life</text>
<g class="st13">
	<path class="st4" d="M91.3,322.7h15.7v84.7H91.3V322.7z"/>
	<path class="st4" d="M121.1,328c0-2.6,0.8-4.7,2.5-6.2c1.7-1.5,4.1-2.3,7.2-2.3c3,0,5.4,0.8,7.1,2.3c1.7,1.5,2.6,3.6,2.6,6.2
		c0,2.6-0.9,4.7-2.6,6.2c-1.7,1.5-4.1,2.3-7.1,2.3c-3.1,0-5.5-0.8-7.2-2.3C122,332.7,121.1,330.7,121.1,328z M123,347.3h15.7v60.1
		H123V347.3z"/>
	<path class="st4" d="M191.7,405.9c-5.8,2.1-10.4,3.2-13.8,3.2c-3.4,0-6.3-0.4-8.8-1.1c-2.5-0.7-4.8-1.9-6.7-3.3
		c-4.1-3.4-6.1-8-6.1-14v-33.6h-9v-9.8h9v-15.8h15.7v15.8h17.5v9.8h-17.5v33.1c0,4.9,2.5,7.4,7.6,7.4c2.6,0,5.9-0.7,10-2
		L191.7,405.9z"/>
	<path class="st4" d="M237.1,394.7h35.5v12.7h-51.1v-80.1h15.7V394.7z"/>
	<path class="st4" d="M276.5,328c0-2.6,0.8-4.7,2.5-6.2c1.7-1.5,4.1-2.3,7.2-2.3c3,0,5.4,0.8,7.1,2.3c1.7,1.5,2.6,3.6,2.6,6.2
		c0,2.6-0.9,4.7-2.6,6.2c-1.7,1.5-4.1,2.3-7.1,2.3c-3.1,0-5.5-0.8-7.2-2.3C277.3,332.7,276.5,330.7,276.5,328z M278.4,347.3H294
		v60.1h-15.7V347.3z"/>
	<path class="st4" d="M303.6,347.4h9.6v-7c0-6.2,1.9-10.9,5.8-14.2c3.5-3,8.1-4.4,13.8-4.4c3.6,0,8.1,0.5,13.4,1.5l-3.1,11.2
		c-2.5-0.8-4.7-1.2-6.7-1.2c-2,0-3.7,0.5-5.2,1.5c-1.5,1-2.3,2.9-2.3,5.7v6.9h11.8v9.8h-11.8v50.3h-15.8v-50.3h-9.6V347.4z"/>
	<path class="st4" d="M399.2,363.7c1.1,3.5,1.7,6.6,1.7,9.5c0,2.9-0.2,5.5-0.5,7.8h-41.7c0.2,4.9,1.5,8.8,3.9,11.9
		c2.4,3,6,4.6,10.9,4.6c6.5,0,10.3-2.6,11.6-7.9h15.8c-1.1,6-4,10.7-8.9,14.2c-5,3.6-11.2,5.4-18.5,5.4c-8.5,0-15.6-2.9-21.4-8.6
		c-5.9-6-8.9-13.7-8.9-23.1c0-9.6,3-17.4,8.9-23.2c5.7-5.6,12.8-8.4,21.4-8.4c8.9,0,15.9,2.9,20.8,8.8
		C396.5,357.2,398.1,360.3,399.2,363.7z M373.6,357.4c-4.4,0-7.9,1.3-10.4,4c-2.5,2.7-3.9,6.1-4.4,10.3h27.5
		c0-6.5-2.2-10.9-6.6-13.1C378,357.8,375.9,357.4,373.6,357.4z"/>
</g>
<circle class="st14" cx="271.8" cy="283.5" r="82.2"/>
<path class="st5" d="M239.7,202.3L239.7,202.3c-0.9-0.5-1.9-0.6-2.8-0.3c-1,0.3-1.8,1.1-2.2,2.1c-3.5,8.4-10.3,13.9-17.4,13.9
	c-7.1,0-13.9-5.5-17.4-13.9c-0.4-1-1.2-1.8-2.2-2.1c-0.9-0.3-2-0.2-2.8,0.3c-1.6,1-2.3,3.2-1.6,5.1c4.7,11.4,13.9,18.5,24,18.5
	c10.1,0,19.3-7.1,24-18.5C242.1,205.5,241.4,203.2,239.7,202.3z"/>
<path class="st5" d="M334.3,202.3L334.3,202.3c-0.9-0.5-1.9-0.6-2.8-0.3c-1,0.3-1.8,1.1-2.2,2.1c-3.5,8.4-10.3,13.9-17.4,13.9
	c-7.1,0-13.9-5.5-17.4-13.9c-0.4-1-1.2-1.8-2.2-2.1c-0.9-0.3-2-0.2-2.8,0.3c-1.6,1-2.3,3.2-1.6,5.1c4.7,11.4,13.9,18.5,24,18.5
	c10.1,0,19.3-7.1,24-18.5C336.7,205.5,336,203.2,334.3,202.3z"/>
<g class="st13">
	<path class="st4" d="M435.8,413.5c-4.1,0.8-6.2,3.7-6.2,8.7c0,2.5,0.5,4.4,1.5,5.8c1,1.4,2.2,2.1,3.6,2.1c1.4,0,2.5-0.4,3.3-1.3
		c0.8-0.9,1.5-2.3,2.2-4.2l4-10.2c1.4-3.5,3.1-6.2,5.1-8c2.1-1.9,4.6-2.8,7.7-2.8c4.3,0,7.6,1.6,10.1,4.8c2.5,3.2,3.7,7.7,3.7,13.6
		c0,5.2-1.3,9.4-3.8,12.7c-2.8,3.6-6.8,5.5-11.9,5.7v-8.5c3.9,0,6.3-2,7.3-6c0.3-1.2,0.5-2.8,0.5-4.8c0-2-0.5-3.8-1.5-5.5
		c-1-1.7-2.3-2.5-4-2.5s-2.9,0.5-3.8,1.4c-0.9,0.9-1.7,2.4-2.5,4.5l-3.7,9.3c-1.4,3.6-3,6.4-4.9,8.3c-1.9,1.9-4.5,2.9-7.8,2.9
		c-3.9,0-7-1.5-9.3-4.6c-2.4-3.1-3.5-7.3-3.5-12.6s1.2-9.4,3.7-12.2c2.4-2.9,5.9-4.5,10.3-5V413.5z"/>
	<path class="st4" d="M433.7,380.7c0-2.4,0.4-4.6,1.1-6.7c0.8-2.1,1.9-3.9,3.4-5.4c3.4-3.3,8.1-5,14.1-5c5.9,0,10.5,1.7,13.9,5
		c3.1,3,4.6,7,4.6,12s-1.5,9.1-4.6,12.2c-3.3,3.3-8,5-13.9,5c-6,0-10.7-1.7-14.1-5C435.2,389.8,433.7,385.8,433.7,380.7z
		 M452.2,372.2c-3.7,0-6.5,0.7-8.4,2.2c-1.9,1.4-2.8,3.5-2.8,6c0,2.6,0.9,4.7,2.8,6.3c1.9,1.6,4.6,2.5,8.4,2.5
		c3.7,0,6.5-0.7,8.4-2.2c1.9-1.5,2.8-3.5,2.8-6c0-2.6-0.9-4.7-2.8-6.3C458.7,373.1,455.9,372.2,452.2,372.2z"/>
	<path class="st4" d="M434.6,359.9v-5.2h-4.1c-3.6,0-6.4-1.1-8.3-3.2c-1.7-1.9-2.6-4.4-2.6-7.5c0-2,0.3-4.4,0.9-7.3l6.6,1.7
		c-0.5,1.4-0.7,2.6-0.7,3.7s0.3,2,0.9,2.9c0.6,0.8,1.7,1.2,3.4,1.2h4.1v-6.4h5.7v6.4h29.5v8.6h-29.5v5.2H434.6z"/>
	<path class="st4" d="M468.9,312.3c1.3,3.2,1.9,5.7,1.9,7.5c0,1.8-0.2,3.4-0.7,4.8c-0.4,1.4-1.1,2.6-2,3.7c-2,2.2-4.7,3.3-8.2,3.3
		h-19.7v4.9h-5.7v-4.9h-9.3V323h9.3v-9.6h5.7v9.6h19.4c2.9,0,4.3-1.4,4.3-4.1c0-1.4-0.4-3.2-1.2-5.4L468.9,312.3z"/>
	<path class="st4" d="M434.6,302.9l25.1-7.1l-23.2-6.7v-7.8l23.3-6.7l-25.2-7.2v-8.5l35.2,11.6v8.4l-21.1,6.5l21.1,6.4v8.5
		l-35.2,11.7V302.9z"/>
	<path class="st4" d="M449.2,242.1c0-2.8,0.5-6,1.4-9.7h-3.5c-2.5,0-4.3,0.5-5.5,1.5c-1.2,1-1.8,2.6-1.8,4.9s0.4,4,1.3,5.2
		c0.9,1.2,2.2,1.8,3.8,1.8v9.3c-4,0-6.9-1.4-8.7-4.2c-1.8-2.8-2.7-6.8-2.7-11.8c0-7.2,2.5-11.9,7.6-14.1c1.7-0.7,3.8-1.1,6.2-1.1
		h22.4v7.5l-4.7,0.7c3.8,2.3,5.7,5.7,5.7,10.4c0,4.5-1.1,8.1-3.3,10.6c-2.1,2.3-4.8,3.5-8.1,3.5s-5.8-1.3-7.5-3.8
		C450.1,250,449.2,246.5,449.2,242.1z M456.1,232.4c-0.8,2.9-1.2,5.5-1.2,8c0,4.6,1.5,7,4.6,7c1.3,0,2.4-0.5,3.4-1.6
		c0.9-1.1,1.4-2.8,1.4-5.1c0-2.3-0.8-4.3-2.4-5.8C460.4,233.3,458.4,232.4,456.1,232.4z"/>
	<path class="st4" d="M441.6,205.3c-5.1-2.1-7.6-5.3-7.6-9.6c0-0.8,0.2-1.9,0.5-3.1l8.5,0.1c-0.3,1.4-0.4,2.7-0.4,4
		c0,5.7,3.9,8.5,11.8,8.5h15.4v8.5h-35.3v-8.5H441.6z"/>
	<path class="st4" d="M444.2,159c2-0.6,3.9-0.9,5.6-0.9s3.2,0.1,4.6,0.3v22.7c2.8-0.1,5.2-0.8,7-2.1c1.8-1.3,2.7-3.3,2.7-5.9
		c0-3.5-1.5-5.6-4.6-6.3v-8.6c3.5,0.6,6.3,2.2,8.3,4.9c2.1,2.8,3.2,6.1,3.2,10.1c0,4.6-1.7,8.5-5.1,11.7c-3.5,3.2-8,4.9-13.5,4.9
		c-5.7,0-10.2-1.6-13.6-4.9c-3.3-3.1-4.9-7-4.9-11.7c0-4.9,1.7-8.7,5.1-11.4C440.4,160.5,442.1,159.6,444.2,159z M440.5,173
		c0,2.4,0.8,4.3,2.4,5.7c1.6,1.4,3.6,2.1,6,2.4v-15c-3.8,0-6.4,1.2-7.7,3.6C440.7,170.6,440.5,171.7,440.5,173z"/>
</g>
</svg>
