<svg id="Ebene_1" data-name="Ebene 1" xmlns="http://www.w3.org/2000/svg" viewBox="0 0 309.63 125.45"><defs><style>.cls-1,.cls-3{fill:#a3a2a2;}.cls-1,.cls-2{opacity:0.9;}</style></defs><title>lit_Life_font</title><rect class="cls-1" y="106.23" width="309.63" height="19.22"/><g class="cls-2"><path class="cls-3" d="M91.28,322.72h15.67v84.71H91.28Z" transform="translate(-91.28 -319.51)"/><path class="cls-3" d="M121.15,328a8,8,0,0,1,2.52-6.24q2.52-2.28,7.17-2.28a10.37,10.37,0,0,1,7.1,2.28,8.8,8.8,0,0,1,0,12.47,10.36,10.36,0,0,1-7.1,2.28q-4.65,0-7.17-2.28A8,8,0,0,1,121.15,328ZM123,347.29h15.67v60.14H123Z" transform="translate(-91.28 -319.51)"/><path class="cls-3" d="M191.65,405.95q-8.76,3.21-13.81,3.21A31.44,31.44,0,0,1,169,408a20.46,20.46,0,0,1-6.71-3.33q-6.11-5.06-6.11-14V357.17h-9v-9.76h9V331.61h15.67v15.81H189.4v9.76H171.87v33.09q0,7.41,7.57,7.41a34,34,0,0,0,10-2Z" transform="translate(-91.28 -319.51)"/><path class="cls-3" d="M237.06,394.71h35.45v12.72H221.39V327.29h15.67Z" transform="translate(-91.28 -319.51)"/><path class="cls-3" d="M276.49,328a8,8,0,0,1,2.52-6.24q2.52-2.28,7.17-2.28a10.37,10.37,0,0,1,7.1,2.28,8.8,8.8,0,0,1,0,12.47,10.36,10.36,0,0,1-7.1,2.28q-4.65,0-7.17-2.28A8,8,0,0,1,276.49,328Zm1.86,19.26H294v60.14H278.35Z" transform="translate(-91.28 -319.51)"/><path class="cls-3" d="M303.58,347.42h9.56v-7q0-9.26,5.84-14.2,5.31-4.45,13.81-4.45a75.49,75.49,0,0,1,13.41,1.48l-3.05,11.24a21.55,21.55,0,0,0-6.71-1.24,9.07,9.07,0,0,0-5.24,1.54q-2.26,1.55-2.26,5.74v6.92h11.82v9.76H328.94v50.26h-15.8V357.17h-9.56Z" transform="translate(-91.28 -319.51)"/><path class="cls-3" d="M399.24,363.71a31.45,31.45,0,0,1,1.66,9.51,51.62,51.62,0,0,1-.53,7.78H358.68q.27,7.29,3.85,11.85t10.89,4.57q9.69,0,11.55-7.9h15.8a21.29,21.29,0,0,1-8.9,14.2q-7.57,5.43-18.46,5.43A29,29,0,0,1,352,400.51q-8.9-9-8.9-23.09,0-14.45,8.9-23.21,8.49-8.4,21.38-8.4,13.41,0,20.85,8.77A26.75,26.75,0,0,1,399.24,363.71Zm-25.69-6.3q-6.64,0-10.36,4a17.37,17.37,0,0,0-4.38,10.31H386.3q0-9.75-6.64-13.09A13.8,13.8,0,0,0,373.55,357.42Z" transform="translate(-91.28 -319.51)"/></g></svg>